# Blender 4.0.2
# www.blender.org
mtllib tree.mtl
o SM_tree
v 1.767767 -0.046078 -1.767767
v -1.767767 -0.046078 1.767767
v 1.767767 4.953921 -1.767767
v -1.767767 4.953921 1.767767
v -2.500000 -0.046078 -0.000000
v 2.500000 -0.046078 -0.000000
v -2.500000 4.953921 0.000000
v 2.500000 4.953921 0.000000
v 0.000000 -0.046078 -2.500000
v 0.000000 -0.046078 2.500000
v -0.000000 4.953921 -2.500000
v -0.000000 4.953921 2.500000
v -1.767767 -0.046078 -1.767767
v 1.767767 -0.046078 1.767767
v -1.767767 4.953921 -1.767767
v 1.767767 4.953921 1.767767
vn -0.7071 -0.0000 -0.7071
vn -0.0000 -0.0000 1.0000
vn -1.0000 -0.0000 -0.0000
vn -0.7071 -0.0000 0.7071
vt 0.000000 0.000000
vt 1.000000 0.000000
vt 1.000000 1.000000
vt 0.000000 1.000000
vt 0.000000 0.000000
vt 1.000000 0.000000
vt 0.000000 1.000000
vt 0.000000 0.000000
vt 1.000000 0.000000
vt 1.000000 1.000000
vt 0.000000 1.000000
s 1
usemtl Material.001
f 1/1/1 2/2/1 4/3/1 3/4/1
f 5/5/2 6/6/2 8/3/2 7/7/2
f 9/8/3 10/9/3 12/10/3 11/11/3
f 13/8/4 14/9/4 16/10/4 15/11/4
